# xmcd
#
# Track frame offsets: 
#        183
#        13610
#        26900
#        40443
#        55523
#        73245
#        84515
#        99990
#        111150
#        120608
#        130678
#        142703
#        153915
#        164975
#        175788
#        187770
#        199660
#        212485
#        224673
#        236360
#        246655
#        258325
#        269708
#        281793
#
# Disc length: 3954 seconds
#
# Revision: 2
# Processed by: cddbd v1.5.2PL0 Copyright (c) Steve Scherf et al.
# Submitted via: ExactAudioCopyFreeDBPlugin 1.0
#
DISCID=630f7018
DTITLE=King Curtis - Blow Man, Blow!:  The Capitol Years, 1962-1965 [B
DTITLE=ear Family box set]
DYEAR=1992
DGENRE=Rhythm and Blues
TTITLE0=Moon River
TTITLE1=Girl from Ipanema
TTITLE2=Sister Sadie
TTITLE3=Something You've Got
TTITLE4=Take These Chains from My Heart
TTITLE5=Let it Be Me
TTITLE6=Hung Over (re-make)
TTITLE7=Misty (re-make)
TTITLE8=Bill Bailey
TTITLE9=Peter Gunn
TTITLE10=Shake
TTITLE11=Tennessee Waltz
TTITLE12=Ain't That Good News
TTITLE13=Twistin' the Night Away
TTITLE14=Good Times
TTITLE15=Send Me Some Lovin'
TTITLE16=Bring it on Home to Me
TTITLE17=A Change is Gonna Come
TTITLE18=You Send Me
TTITLE19=Cupid
TTITLE20=Having a Party
TTITLE21=Chain Gang
TTITLE22=The Prance
TTITLE23=Something You've Got (overdub)
EXTD=
EXTT0=
EXTT1=
EXTT2=
EXTT3=
EXTT4=
EXTT5=
EXTT6=
EXTT7=
EXTT8=
EXTT9=
EXTT10=
EXTT11=
EXTT12=
EXTT13=
EXTT14=
EXTT15=
EXTT16=
EXTT17=
EXTT18=
EXTT19=
EXTT20=
EXTT21=
EXTT22=
EXTT23=
PLAYORDER=
